<?xml version="1.0" encoding="utf-8"?>
<!-- Generator: Adobe Illustrator 22.0.1, SVG Export Plug-In . SVG Version: 6.00 Build 0)  -->
<svg version="1.1" id="Layer_1" xmlns="http://www.w3.org/2000/svg" xmlns:xlink="http://www.w3.org/1999/xlink" x="0px" y="0px"
	 viewBox="0 0 2000 2000" style="enable-background:new 0 0 2000 2000;" xml:space="preserve">
<g>
	<g>
		<path d="M1490.7,742.7c10.7,3.6,20.4,8.7,29,15.4s16,14.4,22.2,23.2c6.2,8.8,11,18.4,14.4,28.8c3.4,10.4,5.1,21.2,5.1,32.2v298.3
			c0,20.5-3,40.6-9,60.3c-6,19.7-14.7,38.2-26.1,55.4v305.2h-395.5l38.6-306.2c-17.3-18.5-34.4-37.1-51.5-55.7s-34.4-37-52-55.2
			c-9.8-10.1-17.3-21.4-22.7-33.9s-8-26-8-40.3c0-14.6,2.8-28.3,8.3-41c5.5-12.7,13-23.8,22.5-33.4s20.5-17.2,33.2-22.7
			s26.4-8.3,41-8.3V789.5c0-9.8,1.5-19.4,4.4-28.8c-9.8-0.7-19.1-2.8-27.8-6.6s-16.8-8.6-23.9-14.7c-7.2-6-13.2-13.2-18.1-21.5
			c-4.9-8.3-8.1-17.2-9.8-26.6c-8.5,9.1-18.3,16.2-29.5,21.3c-11.2,5-23.2,7.6-35.9,7.6c-12.4,0-24.1-2.5-35.2-7.6
			s-20.8-12-29.3-20.8c-2,9.8-5.4,18.7-10.3,26.9C919.9,726.9,914,734,907,740s-14.9,10.8-23.7,14.4c-8.8,3.6-18.1,5.7-27.8,6.3
			c1.6,4.6,2.7,9.3,3.2,14.2c0.5,4.9,0.7,9.8,0.7,14.6v175.3c14.6,0,28.3,2.8,41,8.3s23.8,13,33.5,22.5c9.6,9.4,17.2,20.6,22.7,33.5
			s8.3,26.6,8.3,41.3c0,14.3-2.7,27.8-8.1,40.3s-13,23.8-22.7,33.9c-17.6,18.2-34.8,36.6-51.8,55.2c-16.9,18.6-34.2,37.1-51.8,55.7
			l38.6,306.2H473.6v-305.2c-11.4-17.3-20.1-35.7-26.1-55.4c-6-19.7-9-39.8-9-60.3V842.3c0-11.1,1.7-21.8,5.1-32.2
			c3.4-10.4,8.2-20,14.4-28.8c6.2-8.8,13.6-16.5,22.2-23.2s18.3-11.8,29-15.4c1.3-13,5-25.3,11.2-36.9c6.2-11.5,13.9-21.5,23.2-29.8
			c9.3-8.3,19.9-14.9,32-19.8c12-4.9,24.8-7.3,38.1-7.3c11.4,0,23.1,2.1,35.2,6.4l2-1c-0.7-2.9-1.2-5.9-1.5-9
			c-0.3-3.1-0.5-6.1-0.5-9c0-11.4,2.2-22.5,6.6-33.5c4.4-10.9,10.5-20.3,18.3-28.1l75.7-75.7c8.1-8.1,17.6-14.4,28.3-18.8
			c10.7-4.4,21.8-6.6,33.2-6.6c20.8,0,39.2,6.5,55.2,19.5c6.5-16.6,17.2-29.9,32-39.8c14.8-9.9,31.2-14.9,49.1-14.9h105.5
			c18.2,0,34.6,4.9,49.1,14.7s25.1,23.1,32,40c7.8-6.2,16.3-11,25.6-14.4c9.3-3.4,19-5.1,29.1-5.1c24.4,0,45.1,8.5,62,25.4
			l74.7,74.7c8.1,8.1,14.4,17.5,18.8,28.1c4.4,10.6,6.6,21.6,6.6,33c0,7.5-0.7,14-2,19.5l2.4,1c12-4.2,23.8-6.4,35.2-6.4
			c13.3,0,26,2.5,38.1,7.3c12,4.9,22.7,11.5,32,19.8c9.3,8.3,16.9,18.2,23,29.8C1485.3,717.4,1489.1,729.6,1490.7,742.7z
			 M894.5,1070.3c0-9.4-3.4-17.7-10.3-24.7s-15.1-10.5-24.9-10.5c-9.5,0-17.6,3.4-24.4,10.3l-60.1,60.1h-20.5
			c-14.7,0-28.3,2.8-41,8.3c-12.7,5.5-23.9,13-33.5,22.5c-9.6,9.4-17.2,20.5-22.7,33.2c-5.5,12.7-8.3,26.4-8.3,41h-35.2
			c0-19.5,3.7-37.8,11.2-54.7c7.5-16.9,17.6-31.7,30.3-44.4c12.7-12.7,27.6-22.7,44.7-30c17.1-7.3,35.2-11,54.5-11h35.2V789.5
			c0-9.8-3.4-18-10.3-24.9s-15.1-10.3-24.9-10.3V1000h-35.2V754.4c0-9.8-3.4-18-10.3-24.9s-15.1-10.3-24.9-10.3V1000h-35.2V754.4
			c0-9.8-3.4-18-10.3-24.9s-15.1-10.3-24.9-10.3V1000h-35.2V842.3c0-9.4-3.4-17.7-10.3-24.7s-15-10.5-24.4-10.5
			c-9.8,0-18.1,3.4-24.9,10.3s-10.3,15.1-10.3,24.9v298.3c0,17.3,3,33.9,9,49.8c6,16,14.7,30.3,26.1,43v257.8h245.6l-32.7-260.3
			c14.6-15.3,29-30.6,43-45.9c14-15.3,28.3-30.8,43-46.4l41.5-43.5C891.1,1088.1,894.5,1079.7,894.5,1070.3z M849.6,690.9
			c4.5,0,8.5-1.6,12-4.9c3.4-3.3,5.1-7.3,5.1-12.2c0-1.9-0.8-5.8-2.4-11.5c-1.6-5.7-3.8-12.5-6.3-20.3c-2.6-7.8-5.5-16.2-8.5-25.1
			s-6-17.5-8.8-25.6c-2.8-8.1-5.3-15.5-7.6-22c-2.3-6.5-3.9-11.1-4.9-13.7c-1.3-3.6-3.6-6.5-6.8-8.8s-6.7-3.4-10.3-3.4
			c-4.6,0-8.6,1.8-12.2,5.4l-74.2,74.7c-3.6,3.6-5.4,7.7-5.4,12.2c0,3.6,1,6.9,3.2,10c2.1,3.1,5,5.3,8.5,6.6c2.6,1,7.2,2.6,13.7,4.9
			c6.5,2.3,13.8,4.8,22,7.6c8.1,2.8,16.8,5.7,25.9,8.8c9.1,3.1,17.6,5.9,25.4,8.5c7.8,2.6,14.6,4.7,20.3,6.4
			C843.8,690.1,847.6,690.9,849.6,690.9z M1000,649.9c6.8,0,12-3.3,15.6-9.8l52.7-106c1.3-2.3,2-5,2-8.3c0-4.9-1.7-8.9-5.1-12.2
			s-7.6-4.9-12.4-4.9H947.3c-4.9,0-9,1.6-12.5,4.9c-3.4,3.3-5.1,7.3-5.1,12.2c0,3.3,0.6,6,2,8.3l52.7,106
			C987.6,646.6,992.8,649.9,1000,649.9z M1491.2,842.3c0-9.8-3.4-18-10.3-24.9c-6.8-6.8-15.1-10.3-24.9-10.3V1000h-35.2V754.4
			c0-9.4-3.4-17.7-10.3-24.7c-6.8-7-15-10.5-24.4-10.5V1000h-35.2V754.4c0-9.8-3.4-18-10.3-24.9c-6.8-6.8-15.1-10.3-24.9-10.3V1000
			h-35.2V789.5c0-9.8-3.4-18-10.3-24.9c-6.8-6.8-15.1-10.3-24.9-10.3s-18.1,3.4-24.9,10.3s-10.3,15.1-10.3,24.9v280.8h35.2
			c19.2,0,37.3,3.7,54.4,11c17.1,7.3,32,17.3,44.7,30c12.7,12.7,22.8,27.6,30.3,44.7s11.2,35.2,11.2,54.4h-35.2
			c0-14.6-2.8-28.3-8.3-41c-5.5-12.7-13.1-23.8-22.7-33.2c-9.6-9.4-20.8-16.9-33.5-22.5s-26.4-8.3-41-8.3h-20.5l-60.1-60.1
			c-6.8-6.8-15.1-10.3-24.9-10.3c-9.4,0-17.6,3.5-24.4,10.5c-6.8,7-10.3,15.2-10.3,24.7s3.4,17.8,10.3,24.9l41.5,43.5
			c14.6,15.6,29,31.1,43,46.4c14,15.3,28.3,30.6,43,45.9l-32.7,260.3h245.6v-257.8c11.4-12.7,20.1-27,26.1-43c6-16,9-32.6,9-49.8
			V842.3z M1189,543.4c-3.6,0-7,1.1-10.3,3.4s-5.5,5.2-6.8,8.8c-1,2.9-2.6,7.6-4.9,13.9s-4.8,13.6-7.6,21.7
			c-2.8,8.1-5.7,16.7-8.8,25.6s-6,17.3-8.5,25.1c-2.6,7.8-4.7,14.6-6.3,20.3c-1.6,5.7-2.4,9.5-2.4,11.5c0,4.6,1.6,8.6,4.9,12
			c3.3,3.4,7.3,5.1,12.2,5.1c1.6,0,5.4-0.8,11.2-2.4s12.7-3.8,20.5-6.4c7.8-2.6,16.3-5.4,25.4-8.5c9.1-3.1,17.7-6,25.9-8.8
			c8.1-2.8,15.5-5.3,22-7.6c6.5-2.3,11.1-3.9,13.7-4.9c3.6-1.3,6.4-3.5,8.5-6.6c2.1-3.1,3.2-6.4,3.2-10c0-4.6-1.8-8.6-5.4-12.2
			l-74.2-74.7C1197.6,545.2,1193.5,543.4,1189,543.4z"/>
	</g>
</g>
</svg>
