<?xml version="1.0" encoding="utf-8"?>
<!-- Generator: Adobe Illustrator 22.0.1, SVG Export Plug-In . SVG Version: 6.00 Build 0)  -->
<svg version="1.1" id="Layer_1" xmlns="http://www.w3.org/2000/svg" xmlns:xlink="http://www.w3.org/1999/xlink" x="0px" y="0px"
	 viewBox="0 0 1989 1958.4" style="enable-background:new 0 0 1989 1958.4;" xml:space="preserve">
<style type="text/css">
	.st0{fill:#00355F;}
</style>
<g>
	<path class="st0" d="M1805.7,812.8c0-5.8,0.1-11.7-0.7-17.5c-8.5-62.1-40.6-106.1-99.3-129.8c-2.6-1.1-3.5-2.4-3.9-5
		c-0.9-7.3-2.5-14.4-4.5-21.5c-18.7-64.4-74-108.3-141-111.9c-2.7-0.1-4.3-1.4-5.9-3c-19-19-37.9-37.9-57-56.9
		c-1.9-1.9-3.3-4-4.3-6.6c-6.1-15.9-15-30.1-27-42.2c-37.7-37.9-75.3-76-113.5-113.5c-36.8-36.1-93.8-45-140.5-23.2
		c-9.7,4.5-18.6,10.2-27.4,16.8c-4.8-11-10.1-21.4-17.4-30.5c-2.5-3.1-1.8-4.7,0.7-7.2c14.5-14.3,28.7-28.8,43.3-43
		c2.8-2.7,2.4-3.9-0.1-6.4c-35.2-35-70.3-70.1-105.4-105.3c-2.7-2.7-4.1-2.9-6.9-0.1c-21.7,21.9-43.5,43.7-65.4,65.4
		c-1.2,1.2-2.1,2.9-4.2,3.2c0-20.2-0.1-40,0.1-59.8c0-4.2-0.7-5.6-5.3-5.6c-23.5,0.3-47,0.3-70.5,0c-4.3,0-5.5,0.9-5.5,5.4
		c0.2,33.2,0.1,66.3,0.2,99.5c0,3.5-0.9,4.5-4.4,4.4c-10.5-0.2-21-0.2-31.5-0.1c-43.8,0.5-78.8,18.2-104.9,53.3
		c-6,8-10.3,17-14.3,26.4c-0.8-0.5-1.4-0.8-1.9-1.2c-50.2-40.1-125.3-35-171.3,12.5c-34.9,36-70.7,71.2-106.2,106.6
		c-12.8,12.8-22.5,27.5-29.1,44.3c-0.9,2.2-2,4.1-3.7,5.8c-19.3,19.3-38.7,38.6-58,58c-1.9,1.9-3.9,2.6-6.6,2.7
		c-9,0.2-17.9,1.5-26.7,3.6c-70.5,17.2-111.6,75.8-117.8,128.6c-0.4,3.6-1.6,5.5-5.2,6.6c-6.9,2.1-13.4,5.1-19.5,8.8
		c-51.7,31.2-78.9,76.9-79.1,137.3c-0.5,144-0.1,287.9-0.2,431.9c-0.1,61.1,16.3,117.3,49,168.8c1.8,2.8,2.5,5.5,2.5,8.8
		c-0.1,145.2,0,290.3-0.2,435.5c0,5,0.9,6.5,6.3,6.5c116.3-0.2,232.6-0.1,349-0.1c72.7,0,145.3,0,218,0.1c4.3,0,5.3-0.9,4.7-5.2
		c-1.6-10.4-2.8-20.8-4.1-31.2c-5.5-43.6-11-87.2-16.5-130.8c-5.8-46.4-11.7-92.9-17.5-139.3c-5.5-43.6-10.7-87.3-16.7-130.8
		c-1.2-8.4,1.1-13.7,6.7-19.6c46.9-49,91.7-100,138.7-148.8c3.3-3.4,4.8-3,7.9,0.1c29.8,30,59.9,59.8,89.7,89.9
		c3.2,3.2,4.6,2.8,7.5-0.2c30.1-30.3,60.3-60.3,90.4-90.6c2.8-2.8,4.1-2.7,6.8,0.1c49,50.9,96.1,103.6,144.4,155.2
		c1.8,1.9,2.3,3.7,1.9,6.2c-1.3,9.4-2.5,18.8-3.7,28.2c-5.9,46.8-11.7,93.5-17.6,140.3c-5.5,43.4-11,86.9-16.4,130.4
		c-5.9,46.6-11.7,93.2-17.7,139.8c-0.6,4.5-0.3,6.1,5,6.1c189-0.2,378-0.2,566.9,0c5,0,5.8-1.4,5.8-6c-0.1-145.3-0.1-290.6-0.2-436
		c0-3.3,0.8-6,2.6-8.8c32-50.5,48.8-105.5,48.8-165.3C1805.8,1102.5,1805.8,957.6,1805.7,812.8z M1415.6,487.2
		c2.8-2.8,4-2.2,6.4,0.2c41.5,41.7,83.2,83.2,124.8,124.8c13.1,13.1,26.2,26.2,39.4,39.1c3.1,3,3.5,4.6,0.2,7.8
		c-14.8,14.4-29.4,29-44.1,43.6c-39.9,39.8-79.7,79.6-119.5,119.5c-1.3,1.3-2.2,2.9-3.8,5c-20.6-20.8-40.3-40.8-60.2-60.8
		c-35.8-35.9-71.6-71.7-107.5-107.5c-2.8-2.8-3.2-4.3-0.2-7.3C1306.1,596.9,1360.9,542.1,1415.6,487.2z M1180.6,557.8
		c3.5-16.8,9.1-33,14.7-49.1c13.3-38.8,26.8-77.6,40.1-116.4c2.9-8.4,8-14.5,16.2-17.9c11.3-4.7,20.8-1.3,29,7
		c21.4,21.5,42.7,43.1,64,64.6c2.5,2.5,4.8,5.2,7.4,7.4c2.8,2.3,2.3,3.8-0.1,6.2c-30.7,30.5-61.3,61.2-91.9,91.8
		c-8.4,8.4-17.1,16.4-25,25.2c-6.9,7.8-15.8,9.6-25.3,10.8l0,0c-3.6,1.6-7.2,1.6-10.8,0C1186.2,585.5,1177.6,571.8,1180.6,557.8z
		 M1200.3,702.7c0.5-0.4,1-0.8,1.8-1.5c20.3,20.3,40.4,40.7,60.7,60.9c35.5,35.5,70.9,70.9,106.6,106.2c3.2,3.2,2.9,4.8-0.1,7.8
		c-54.8,54.5-109.5,109.2-164.2,163.9c-2.7,2.7-4,2.4-6.5-0.1c-54.8-54.8-109.6-109.6-164.5-164.3c-2.3-2.2-3.6-3.6-0.5-6.6
		C1089.2,813.6,1144.7,758.2,1200.3,702.7z M1034.7,212c20.3-20,40.4-40.1,60.4-60.4c2.6-2.6,3.9-2.3,6.3,0.1
		c20.1,20.2,40.2,40.3,60.4,60.5c0.9,0.9,2.2,1.6,2.3,3.3c-0.6,0.6-1.2,1.4-1.9,2.1c-20.5,20.3-41,40.4-61.4,60.8
		c-2.9,2.9-4.1,0.9-5.9-0.9c-18-18-36-36-54.1-54c-1.8-1.8-3.6-3.5-5.6-5C1032.5,216.4,1031.8,214.9,1034.7,212z M1027.9,321.4
		c12.6,0.3,25.4-1.1,37.9,0.7c18.2,2.6,27.3,20.1,19.2,36.7c-10.2,21-20.7,41.8-31,62.6c-3.8,7.7-7.8,15.4-11.5,23.2
		c-1.3,2.8-2.2,3.5-4.8,1c-12.2-11.7-12.3-11.6-12.3-28.5c0-13.2,0-26.3,0-39.5c0-17.3,0-34.6,0-52
		C1025.4,323.8,1024.5,321.3,1027.9,321.4z M977.4,142.3c5,0,9.9,0,14.8,0c1.5,0.6,1,1.9,1,3c0,20.1,0,40.1,0,60.2
		c0,1.1,0.2,2.4-1,3.1l0,0l0,0c-0.6,0.8-1.1,1.7-1.9,2.3c-3.3,2.5-4,4.9-0.3,7.8c2.7,2.1,3,5.2,3,8.6c-0.1,31.7,0,63.4,0,95.1l0,0
		l0,0c0.1,25,0.1,50,0.1,75.1c0,1,0.8,3.4-1.9,1.8l0,0c-6.5-5.4-6.5-5.4-13,0c-0.4,0.5-0.9,1.3-1.5,0.5c-0.4-0.6-0.5-1.5-0.5-2.3
		c0-25,0.1-50,0.2-75.1l0,0c0-34.7,0-69.4,0-104.1c0,0,0,0,0-0.1c0-24.5-0.1-48.9-0.1-73.4C976.3,143.8,976.1,142.7,977.4,142.3z
		 M907.9,321.5c11-0.4,22,0.1,33-0.2c3.7-0.1,3.5,1.9,3.5,4.4c0,17.3,0,34.6,0,52c0,17-0.1,34,0.1,51c0,3.3-0.8,5.7-3.3,7.8
		c-3.1,2.8-6.1,5.7-8.8,8.8c-2.6,3-3.6,2-5.1-1c-10.2-20.8-20.5-41.4-30.8-62.2c-3.7-7.5-7.4-14.9-11.1-22.4
		C876.1,341,887.1,322.2,907.9,321.5z M817.5,651.3c54.6-54.5,109.2-109,163.6-163.7c3.1-3.1,4.5-3.1,7.6,0
		c54.4,54.7,109,109.2,163.5,163.7c2.2,2.2,4.2,3.6,0.7,7c-55.5,55.2-110.8,110.7-166.2,166c-0.6,0.6-1.2,1.1-2.1,1.9
		c-17.7-17.7-35.3-35.4-53-53.1c-38-38.1-76-76.2-114.2-114.1C814.4,656,814.3,654.5,817.5,651.3z M935,867.9c3,3,3.7,4.6,0.3,8.1
		c-54.8,54.5-109.5,109.1-164.1,163.8c-2.5,2.5-3.7,3-6.5,0.2C710,985.1,655.2,930.4,600.4,875.7c-2.3-2.2-3.6-3.6-0.5-6.6
		c55.5-55.3,110.8-110.6,166.2-166c0.6-0.6,1.2-1.1,2.5-2.2c4.3,4.5,8.3,9.1,12.7,13.5C832.4,765.6,883.6,816.8,935,867.9z
		 M618.9,452.7c23.7-23.7,47.2-47.5,70.8-71.2c15.2-15.3,36.9-10.8,44.4,9.6c8.5,23.2,16.5,46.7,24.5,70.1
		c9.6,28.3,19.8,56.4,28,85.2c2,7.1,4.6,14.2,3.1,21.9c-2.3,11.8-12.2,20.1-26.4,20.1c-9.6-1.7-20.6-3.5-29.7-12.9
		c-37.8-38.7-76.3-76.7-114.7-114.8C615.3,457.3,615.9,455.7,618.9,452.7z M382.7,652.2c55.6-55.4,111.1-110.9,166.6-166.4
		c0.5-0.5,1-0.9,2.3-2c16.1,16.4,32.1,32.8,48.3,49.1c39.2,39.3,78.3,78.6,117.7,117.7c3.5,3.5,3.7,5.2,0.1,8.8
		c-54.6,54.3-109,108.8-163.3,163.3c-2.8,2.8-4.1,3.2-7.2,0.1c-41.7-41.9-83.6-83.7-125.5-125.5c-13-13-25.8-26-38.8-39
		C380.7,656.2,380,654.9,382.7,652.2z M811.2,1184.8c-34.9,36.5-69.8,72.9-103.8,110.2c-25.2,27.6-50.5,54.9-76.3,81.9
		c-1.6,1.7-2.2,3.2-1.9,5.7c4.2,32.9,8.2,65.9,12.3,98.8c4.1,32.8,8.5,65.5,12.6,98.3c3.2,25.7,6.3,51.4,9.5,77.1
		c3,24,6.2,48.1,9.2,72.1c1.3,10,2.3,20.1,3.4,30.2l0,0l0,0l0,0l0,0c-1,2.2-2.9,1-4.3,1c-116.7,0.1-233.3,0.1-350,0
		c-1.4,0-3.3,1.1-4.3-1l0,0c-0.1-2-0.2-4-0.2-6c0-121.7,0-243.3,0-364.9c0-3.3-0.7-5.9-2.9-8.5c-26.6-31.1-42-67.1-47.1-107.6
		c-1.1-8.6-1.3-17.3-1.3-25.9c0-144.5,0-289,0-433.4c0-26.4,14.8-46.5,38.7-52.7c27.5-7.1,57,11.3,62.5,39.2
		c0.2,1.1,0.1,2.3,0.1,3.5l0,0l0,0c1.6,2.6,0.9,5.5,0.9,8.3c0,74.7,0,149.4,0,224.2c0,2,0.1,4,0.2,6c15.2,0,30.3-0.2,45.5,0.1
		c4.3,0.1,5.5-0.8,5.5-5.4c-0.2-63.1-0.1-126.2-0.1-189.4c0-18,0-36,0-54c0-1.6,0-3.2,0-4.5c17.1,16.7,34.1,33.3,51,49.9l0,0
		c1.7,1.7,0.8,3.8,0.8,5.7c0,63.9,0,127.7,0,191.6c0,2,0.1,4,0.2,6c15.2,0,30.3-0.2,45.5,0.1c4.3,0.1,5.5-0.8,5.5-5.4
		c-0.2-46.5-0.1-93-0.1-139.5c0-1.8,0-3.6,0-5.5c1.9-0.3,2.4,1.2,3.3,2c15.2,15,30.2,30.1,45.4,45c2.3,2.3,3.3,4.6,3.3,7.8
		c-0.1,30.2,0,60.3-0.2,90.5c0,4,1,5,5,4.9c13.8-0.2,27.7-0.3,41.5,0c4.2,0.1,4.9-1.3,4.8-5.1c-0.2-14.1-0.1-28.3-0.1-42.4
		c1.9-0.5,2.5,1.1,3.3,1.9c15.3,15.2,30.4,30.4,45.7,45.5c2,2,2.9,4.1,2.9,7c-0.1,30.5-0.1,61,0,91.5c0,3.8-1,4.7-4.7,4.6
		c-16.2-0.2-32.3-0.6-48.5,0c-83.8,3.3-145.2,42.5-183.8,116.9c-13.5,25.9-19.6,53.8-20.2,83.1c-0.1,3.7,0.5,5.2,4.7,5.1
		c14-0.3,28-0.2,42,0c3.3,0,4.4-0.5,4.6-4.2c3.1-63,34.2-107.7,90.1-135.5c20.8-10.3,43.2-14.1,66.2-14.2c1.5,0,3,0,4.5,0
		c7.8-0.1,16.5,1.9,23.2-0.9s11.4-10.4,16.9-15.9c22.2-22.2,44.3-44.3,66.3-66.5c2.4-2.4,3.6-2.6,6.1-0.1c22,22.1,44,44.1,66.3,65.9
		C814.1,1180.6,813.8,1182.1,811.2,1184.8z M1152.9,1092c-9.1,9.1-18.2,18.1-27.2,27.2c-45.8,45.8-91.7,91.7-137.3,137.6
		c-3,3-4.3,2.8-7.2-0.1c-54.5-54.8-109.2-109.5-163.9-164.1c-3-3-2.9-4.4,0-7.3c54.8-54.6,109.4-109.3,164-164c3-3,4.4-2.8,7.2,0.1
		c33.2,33.3,66.5,66.4,99.8,99.6c21.6,21.6,43,43.2,64.5,64.9c0.9,0.9,1.8,1.9,2.6,2.8C1155.1,1090.4,1153.8,1091.1,1152.9,1092z
		 M1702.6,810.4L1702.6,810.4c-0.1,2-0.2,4-0.2,6c0,142.6,0,285.2,0,427.8c0,4.7-0.1,9.3-0.2,14c0,0,0,0,0,0.1
		c-0.4,17.3-3.8,34.2-8.9,50.7c-8.1,26.3-21.2,50-39.2,70.9c-0.8,0.9-1.6,1.6-2.4,2.5l0,0c-0.1,2.1-0.3,4.3-0.3,6.4
		c0,122,0,244.1-0.1,366.1c0,1.8,1.1,3.9-1.1,5.3l0,0c-1.5,0.1-3,0.2-4.5,0.2c-116,0-232,0-347.9,0c-1.5,0-3-0.1-4.5-0.2
		c0,0,0,0,0.1,0c0,0,0,0-0.1,0c-2.7-4.3-0.1-8.6,0.4-12.7c2.7-23.9,5.8-47.8,8.8-71.7c2.8-21.7,5.6-43.5,8.4-65.2
		c2.9-23.4,5.7-46.8,8.7-70.2c2.7-21.8,5.6-43.5,8.3-65.2c2.9-23.4,5.8-46.8,8.7-70.2c0.9-7.6,1.8-15.2,2.9-22.7
		c0.3-2.1-0.2-3.4-1.6-4.8c-60.1-63.1-117.9-128.3-178.8-190.7c-3.4-3.5-3.9-5.5,0-9.2c21.9-21.4,43.6-43.1,65.2-64.8
		c2.9-2.9,4.3-2.4,6.9,0.2c25.6,25.8,51.4,51.4,76.9,77.3c4,4.1,7.9,5.6,13.5,5.5c19.1-0.4,38.3-0.6,57.1,3.8
		c60.8,14,108.9,65.9,117.8,127.5c0.9,6.2,1.3,12.6,1.4,18.9c0.1,3.2,1.3,3.8,4.2,3.7c14.5-0.1,29-0.2,43.5,0c3.3,0,3.8-1.1,3.7-4.1
		c-1.8-56.5-23.3-104.3-63.6-143.6c-31.6-30.8-69.7-49-113.3-55.4c-9.9-1.4-19.8-2.2-29.8-2.1c-15.5,0.2-31,0-46.5,0.1
		c-2.5,0-3.9-0.3-3.9-3.4c0.1-31.2,0.1-62.3,0-93.5c0-2,0.7-3.5,2.1-4.9c33.2-33.1,66.3-66.2,99.4-99.2c0.3-0.3,0.8-0.5,1.3-0.8
		c1.2,1.7,0.6,3.6,0.6,5.3c0.1,29.5,0.1,59-0.1,88.5c0,3.8,0.7,5.1,4.8,5.1c13.8-0.3,27.7-0.3,41.5,0c4,0.1,4.9-1.1,4.9-5
		c-0.1-47-0.1-94-0.2-141c0-3.5,1-5.8,3.5-8.2c14.8-14.7,29.4-29.5,44.2-44.2c1.2-1.1,2.4-2.3,4.4-4.2c0,2.7,0,4.4,0,6.1
		c0,63.7,0.1,127.3-0.1,191c0,4.4,1,5.6,5.4,5.5c13.5-0.3,27-0.4,40.5,0c4.6,0.1,5.3-1.4,5.3-5.6c-0.1-81-0.1-162-0.2-242.9
		c0-3.8,1-6.5,3.8-9.1c15.5-15.1,30.8-30.4,46.2-45.6l0,0c0.8-0.8,1.1-0.2,1.1,0.5c0.1,1.5,0.1,3,0.1,4.5c0,97.2,0,194.5,0,291.7
		c0,2.2,0.1,4.3,0.2,6.5l0,0c15.2,0,30.3-0.2,45.5,0.1c4.3,0.1,5.5-0.9,5.5-5.4c-0.2-90.6-0.1-181.2-0.2-271.7c0-4.7,1.3-6,5.8-5.6
		c24.3,2.4,44.6,23.3,46.2,47.5C1703.3,807.5,1703.8,809.1,1702.6,810.4z"/>
	<path class="st0" d="M1701.3,815.7c-0.1,145.7-0.1,291.4,0,437.2c0,1.8-0.6,3.7,0.9,5.2l0,0c-0.7-1.6-0.4-3.3-0.4-4.9
		c0-146.1,0-292.2,0-438.3c0-1.5-0.8-3.3,0.8-4.6c0,0,0,0,0-0.1C1700.3,811.7,1701.3,813.9,1701.3,815.7z"/>
	<path class="st0" d="M1650.3,1388.6c-0.1,123.5-0.1,247-0.1,370.5v0.1c0.1,0,0.1,0,0.2-0.1c0.6-2,0.3-4,0.3-5.9
		c0-121.8,0-243.7,0.1-365.5c0-1.8-0.9-3.9,0.9-5.5l0,0C1649.1,1383.8,1650.3,1386.4,1650.3,1388.6z"/>
	<path class="st0" d="M317.6,1759.1c1.7,0.9,3.6,0.4,5.4,0.4c116,0,231.9,0,347.9,0c1.8,0,3.7,0.4,5.4-0.5l0,0l0,0
		C556.7,1759.1,437.1,1759.1,317.6,1759.1L317.6,1759.1z"/>
	<path class="st0" d="M1299.2,1759.7c115.1,0,230.2,0,345.3-0.1c1.8,0,3.7,0.4,5.4-0.3c0.1-0.1,0.2-0.2,0.3-0.2
		c-116.9,0-233.8,0-350.7,0.1c-2.1,0-4.3-0.8-6.2,0.9C1295.3,1759.2,1297.3,1759.6,1299.2,1759.7z"/>
	<path class="st0" d="M1649.9,1759.3C1649.9,1759.4,1649.9,1759.4,1649.9,1759.3c-0.2,0.3-0.1,0.5,0.3,0.7c0-0.3,0-0.6,0-0.8
		C1650.1,1759.3,1650,1759.3,1649.9,1759.3z"/>
	<path class="st0" d="M1599.3,1035.1c0,2-1,4.4,1.2,6l0,0c-1.5-1.7-0.7-3.8-0.7-5.7c0-97.2,0-194.4-0.1-291.6c0-1.9,0.6-4-0.6-5.8
		l0,0c0,2.3,0.1,4.6,0.1,7C1599.3,841.7,1599.3,938.4,1599.3,1035.1z"/>
	<path class="st0" d="M368.6,1041.1c-1.4-1.8-0.7-3.8-0.7-5.8c0-75.6,0-151.2,0-226.7c0-2,0.3-4-0.4-5.9c0,78.1,0,156.2-0.1,234.3
		C367.4,1038.5,366.9,1040.2,368.6,1041.1z"/>
	<path class="st0" d="M470.4,838.9c0,66.1,0,132.1,0,198.2c0,1.4-0.5,3.1,1.2,4.1c-1.4-1.8-0.7-3.8-0.7-5.8c0-63.9,0-127.7,0-191.6
		c0-2,0.3-4-0.3-5.9l0,0C470.5,838.2,470.4,838.5,470.4,838.9z"/>
	<path class="st0" d="M977.3,394c0-22.1,0-44.3-0.1-66.4c0-1.8,0.6-3.7-0.8-5.3l0,0c0.6,1.8,0.3,3.6,0.3,5.4c0,22.3,0,44.7,0.1,67
		c0,1.5-1.4,3.7,1.4,4.5l0,0l0,0C976.7,397.7,977.3,395.8,977.3,394z"/>
	<path class="st0" d="M992.4,327.6c0,22.2,0,44.3-0.1,66.4c0,1.8,0.7,3.7-1,5.2l0,0c2.7-0.8,1.4-3,1.4-4.5c0.1-18.8,0-37.7,0.1-56.5
		c0-5.3-0.4-10.6,0.3-15.9C991.8,323.9,992.4,325.8,992.4,327.6z"/>
	<path class="st0" d="M976.8,147.6c0,19.1,0,38.1,0,57.2c0,4.4,0.4,8.9-0.3,13.3c0,0,0,0,0,0.1c1.4-1.6,0.8-3.5,0.8-5.2
		c0.1-23.6,0.1-47.1,0.1-70.7C976.3,144,976.9,145.8,976.8,147.6z"/>
	<path class="st0" d="M992.8,206.2c0-20.4,0-40.7,0-61.1c0-1,0.2-2-0.5-2.8c0,22.1,0.1,44.2,0.1,66.3
		C992.8,207.8,992.8,207,992.8,206.2z"/>
	<path class="st0" d="M1198.9,587.3c3.6,0.6,7.2,0.6,10.8,0l0,0C1206.1,587.3,1202.5,587.3,1198.9,587.3z"/>
</g>
</svg>
