<?xml version="1.0" encoding="utf-8"?>
<!-- Generator: Adobe Illustrator 22.0.1, SVG Export Plug-In . SVG Version: 6.00 Build 0)  -->
<svg version="1.1" id="Layer_1" xmlns="http://www.w3.org/2000/svg" xmlns:xlink="http://www.w3.org/1999/xlink" x="0px" y="0px"
	 viewBox="0 0 2000 2000" style="enable-background:new 0 0 2000 2000;" xml:space="preserve">
<style type="text/css">
	.st0{fill:none;stroke:#000000;stroke-width:40;stroke-miterlimit:10;}
	.st1{fill:none;stroke:#000000;stroke-width:20;stroke-miterlimit:10;}
</style>
<g>
	
		<rect x="904.7233887" y="1128.5482178" transform="matrix(-0.7071068 -0.7071068 0.7071068 -0.7071068 841.4553223 2795.6386719)" class="st0" width="190" height="190"/>
	
		<rect x="1039.0737305" y="994.197998" transform="matrix(-0.7071068 -0.7071068 0.7071068 -0.7071068 1165.8056641 2661.2885742)" class="st0" width="190" height="190"/>
	
		<rect x="1173.4239502" y="859.8477173" transform="matrix(-0.7071068 -0.7071068 0.7071068 -0.7071068 1490.1558838 2526.9382324)" class="st0" width="190" height="190"/>
	
		<rect x="770.3731079" y="994.197998" transform="matrix(-0.7071068 -0.7071068 0.7071068 -0.7071068 707.1050415 2471.2885742)" class="st0" width="190" height="190"/>
	
		<rect x="904.7233887" y="859.8477173" transform="matrix(-0.7071068 -0.7071068 0.7071068 -0.7071068 1031.4553223 2336.9382324)" class="st0" width="190" height="190"/>
	
		<rect x="636.0228271" y="859.8477173" transform="matrix(-0.7071068 -0.7071068 0.7071068 -0.7071068 572.7547607 2146.9382324)" class="st0" width="190" height="190"/>
	<rect x="984.6358643" y="626.8477173" class="st1" width="30.1751442" height="197.8248596"/>
	
		<rect x="1030.965332" y="643.0020142" transform="matrix(0.7071068 0.7071068 -0.7071068 0.7071068 795.6338501 -556.8259888)" class="st1" width="78" height="78"/>
</g>
</svg>
