<?xml version="1.0" encoding="utf-8"?>
<svg version="1.1" id="Layer_1" xmlns="http://www.w3.org/2000/svg" xmlns:xlink="http://www.w3.org/1999/xlink" x="0px" y="0px"
	 viewBox="0 0 1989 1958.4" style="enable-background:new 0 0 1989 1958.4;" xml:space="preserve">
<style type="text/css">
	.st0{fill:#E4AB00;}
	.st1{fill:#E43A00;}
	.st2{fill:#EC6400;}
	.st3{fill:#39A000;}
	.st4{fill:#895523;}
	.st5{fill:#F1B500;}
	.st6{fill:#E4B425;}
	.st7{fill:#EFB400;}
	.st8{fill:#EFB300;}
	.st9{fill:#DFB126;}
	.st10{fill:#E0B121;}
	.st11{fill:#DBAD22;}
	.st12{fill:#934D14;}
	.st13{fill:#987B5F;}
	.st14{fill:#E77625;}
</style>
<g>
	<path d="M789.2,298.5c4-9.4,8.3-18.4,14.3-26.4c26.2-35.1,61.2-52.9,104.9-53.3c10.5-0.1,21-0.2,31.5,0.1c3.5,0.1,4.4-0.9,4.4-4.4
		c-0.1-33.2,0-66.3-0.2-99.5c0-4.5,1.1-5.4,5.5-5.4c23.5,0.2,47,0.3,70.5,0c4.6-0.1,5.4,1.4,5.3,5.6c-0.2,19.8-0.1,39.7-0.1,59.8
		c2.1-0.4,3-2.1,4.2-3.2c21.8-21.8,43.7-43.5,65.4-65.4c2.8-2.8,4.2-2.6,6.9,0.1c35,35.2,70.2,70.3,105.4,105.3
		c2.5,2.5,2.9,3.7,0.1,6.4c-14.6,14.2-28.8,28.7-43.3,43c-2.5,2.5-3.2,4-0.7,7.2c7.4,9.1,12.7,19.4,17.4,30.5
		c8.8-6.6,17.7-12.3,27.4-16.8c46.7-21.8,103.7-12.9,140.5,23.2c38.2,37.4,75.8,75.5,113.5,113.5c12,12.1,20.8,26.3,27,42.2
		c1,2.6,2.4,4.7,4.3,6.6c19,18.9,38,37.9,57,56.9c1.7,1.7,3.3,2.9,5.9,3c67,3.6,122.3,47.5,141,111.9c2.1,7,3.6,14.2,4.5,21.5
		c0.3,2.6,1.3,3.9,3.9,5c58.7,23.6,90.9,67.7,99.3,129.8c0.8,5.8,0.7,11.6,0.7,17.5c0,144.8,0.1,289.6,0,434.5
		c-0.1,59.8-16.8,114.9-48.8,165.3c-1.8,2.8-2.6,5.5-2.6,8.8c0.1,145.3,0,290.6,0.2,436c0,4.6-0.8,6-5.8,6c-189-0.2-378-0.2-566.9,0
		c-5.3,0-5.6-1.6-5-6.1c6-46.6,11.8-93.2,17.7-139.8c5.5-43.4,11-86.9,16.4-130.4c5.9-46.8,11.7-93.5,17.6-140.3
		c1.2-9.4,2.4-18.8,3.7-28.2c0.3-2.5-0.2-4.3-1.9-6.2c-48.3-51.6-95.4-104.2-144.4-155.2c-2.7-2.8-4-2.9-6.8-0.1
		c-30.1,30.3-60.3,60.3-90.4,90.6c-2.9,2.9-4.3,3.4-7.5,0.2c-29.8-30.1-59.8-59.9-89.7-89.9c-3.1-3.1-4.6-3.5-7.9-0.1
		c-47,48.9-91.8,99.9-138.7,148.8c-5.6,5.9-7.9,11.2-6.7,19.6c6,43.6,11.3,87.2,16.7,130.8c5.8,46.4,11.7,92.9,17.5,139.3
		c5.5,43.6,11,87.2,16.5,130.8c1.3,10.4,2.5,20.8,4.1,31.2c0.7,4.3-0.4,5.2-4.7,5.2c-72.7-0.1-145.3-0.1-218-0.1
		c-116.3,0-232.6,0-349,0.1c-5.4,0-6.3-1.6-6.3-6.5c0.1-145.2,0.1-290.3,0.2-435.5c0-3.3-0.7-6-2.5-8.8
		c-32.7-51.5-49-107.7-48.9-168.8c0.2-144-0.3-287.9,0.2-431.9c0.2-60.4,27.4-106.2,79.1-137.3c6.1-3.7,12.7-6.7,19.5-8.8
		c3.6-1.1,4.8-3,5.2-6.6c6.2-52.9,47.3-111.4,117.8-128.6c8.8-2.1,17.7-3.4,26.7-3.6c2.7-0.1,4.6-0.8,6.6-2.7
		c19.3-19.4,38.6-38.7,58-58c1.7-1.7,2.8-3.6,3.7-5.8c6.6-16.8,16.3-31.5,29.1-44.3c35.5-35.4,71.3-70.5,106.2-106.6
		c46.1-47.5,121.1-52.7,171.3-12.5C787.8,297.7,788.4,298,789.2,298.5z"/>
	<path class="st0" d="M368.6,1041.1c15.2,0,30.3-0.2,45.5,0.1c4.3,0.1,5.5-0.8,5.5-5.4c-0.2-63.1-0.1-126.2-0.1-189.4
		c0-18,0-36,0-54c0-1.6,0-3.2,0-4.5c17.1,16.7,34.1,33.3,51,49.8c0.7,1.9,0.3,4,0.3,5.9c0,63.8,0,127.7,0,191.6c0,1.9-0.7,4,0.7,5.8
		c15.2,0,30.3-0.2,45.5,0.1c4.3,0.1,5.5-0.8,5.5-5.4c-0.2-46.5-0.1-93-0.1-139.5c0-1.8,0-3.6,0-5.5c1.9-0.3,2.4,1.2,3.3,2
		c15.2,15,30.2,30.1,45.4,45c2.3,2.3,3.3,4.6,3.3,7.8c-0.1,30.2,0,60.3-0.2,90.5c0,4,1,5,5,4.9c13.8-0.2,27.7-0.3,41.5,0
		c4.2,0.1,4.9-1.3,4.8-5.1c-0.2-14.1-0.1-28.3-0.1-42.4c1.9-0.5,2.5,1.1,3.3,1.9c15.3,15.2,30.4,30.4,45.7,45.5c2,2,2.9,4.1,2.9,7
		c-0.1,30.5-0.1,61,0,91.5c0,3.8-1,4.7-4.7,4.6c-16.2-0.2-32.3-0.6-48.5,0c-83.8,3.3-145.2,42.5-183.9,116.9
		c-13.5,25.9-19.6,53.8-20.2,83.1c-0.1,3.7,0.5,5.2,4.7,5.1c14-0.3,28-0.2,42,0c3.3,0,4.4-0.5,4.6-4.2c3.1-63,34.2-107.7,90.1-135.5
		c20.8-10.3,43.2-14.1,66.2-14.2c1.5,0,3,0,4.5,0c7.8-0.1,16.5,1.9,23.2-0.9c6.7-2.8,11.4-10.4,16.9-15.9
		c22.2-22.2,44.3-44.3,66.3-66.5c2.4-2.4,3.6-2.6,6.1-0.1c22,22.1,44,44.1,66.3,65.9c2.9,2.8,2.6,4.3,0,7
		c-34.9,36.5-69.8,72.9-103.8,110.2c-25.2,27.6-50.5,54.9-76.3,81.9c-1.6,1.7-2.2,3.2-1.9,5.7c4.2,32.9,8.2,65.9,12.3,98.8
		c4.1,32.8,8.5,65.5,12.6,98.3c3.2,25.7,6.3,51.4,9.5,77.1c3,24,6.2,48.1,9.2,72.1c1.3,10,2.3,20.1,3.4,30.2
		c-1.7,0.9-3.6,0.5-5.4,0.5c-116,0-231.9,0-347.9,0c-1.8,0-3.7,0.4-5.4-0.4c-0.1-2-0.2-4-0.2-6c0-121.7,0-243.3,0-364.9
		c0-3.3-0.6-5.9-2.9-8.5c-26.6-31.1-42-67.1-47.1-107.6c-1.1-8.6-1.3-17.3-1.3-25.9c0-144.5,0-289,0-433.4
		c0-26.5,14.8-46.5,38.7-52.7c27.5-7.2,57,11.3,62.5,39.2c0.2,1.1,0.1,2.3,0.1,3.5c0.7,1.9,0.4,4,0.4,5.9c0,75.6,0,151.2,0,226.7
		C367.9,1037.3,367.2,1039.4,368.6,1041.1z"/>
	<path class="st0" d="M1293.3,1760.1c-2.7-4.3-0.1-8.6,0.4-12.7c2.7-23.9,5.8-47.8,8.8-71.7c2.8-21.7,5.6-43.5,8.4-65.2
		c2.9-23.4,5.7-46.8,8.7-70.2c2.7-21.8,5.6-43.5,8.3-65.2c2.9-23.4,5.8-46.8,8.7-70.2c0.9-7.6,1.8-15.2,2.9-22.7
		c0.3-2.1-0.2-3.4-1.6-4.8c-60.1-63.1-117.9-128.3-178.8-190.7c-3.4-3.5-3.9-5.5,0-9.2c21.9-21.4,43.6-43.1,65.2-64.8
		c2.9-2.9,4.3-2.4,6.9,0.2c25.6,25.8,51.4,51.4,76.9,77.3c4,4.1,7.9,5.6,13.5,5.5c19.1-0.4,38.3-0.6,57.1,3.8
		c60.8,14,108.9,65.9,117.8,127.5c0.9,6.2,1.3,12.6,1.4,18.9c0.1,3.2,1.3,3.8,4.2,3.7c14.5-0.1,29-0.2,43.5,0c3.3,0,3.8-1.1,3.7-4.1
		c-1.8-56.5-23.3-104.3-63.6-143.6c-31.6-30.8-69.7-49-113.3-55.4c-9.9-1.4-19.8-2.2-29.8-2.1c-15.5,0.2-31,0-46.5,0.1
		c-2.5,0-3.9-0.3-3.9-3.4c0.1-31.2,0.1-62.3,0-93.5c0-2,0.7-3.5,2.1-4.9c33.2-33.1,66.3-66.2,99.4-99.2c0.3-0.3,0.8-0.5,1.3-0.8
		c1.2,1.7,0.6,3.6,0.6,5.3c0.1,29.5,0.1,59-0.1,88.5c0,3.8,0.7,5.1,4.8,5.1c13.8-0.3,27.7-0.3,41.5,0c4,0.1,4.9-1.1,4.9-5
		c-0.1-47-0.1-94-0.2-141c0-3.5,1-5.8,3.5-8.2c14.8-14.7,29.4-29.5,44.2-44.2c1.2-1.2,2.4-2.3,4.4-4.2c0,2.7,0,4.4,0,6.1
		c0,63.7,0.1,127.3-0.1,191c0,4.4,1,5.6,5.4,5.5c13.5-0.3,27-0.4,40.5,0c4.6,0.1,5.3-1.4,5.3-5.6c-0.1-81-0.1-162-0.2-243
		c0-3.8,1-6.5,3.8-9.1c15.5-15.1,30.8-30.4,46.2-45.7c1.2,1.8,0.6,3.9,0.6,5.8c0,97.2,0,194.4,0.1,291.6c0,1.9-0.8,4,0.7,5.7
		c15.2,0,30.3-0.2,45.5,0.1c4.3,0.1,5.5-0.9,5.5-5.4c-0.2-90.6-0.1-181.2-0.2-271.7c0-4.7,1.3-6,5.8-5.6
		c24.3,2.4,44.6,23.3,46.2,47.5c0.1,1.4,0.6,3-0.6,4.3c-1.7,1.3-0.8,3.1-0.8,4.6c0,146.1,0,292.2,0,438.3c0,1.6-0.3,3.3,0.4,4.9
		c-0.4,17.3-3.8,34.2-8.9,50.7c-8.1,26.3-21.2,50-39.2,70.9c-0.8,0.9-1.6,1.6-2.4,2.5c-1.9,1.6-0.9,3.7-0.9,5.5
		c-0.1,121.8-0.1,243.7-0.1,365.5c0,2,0.3,4-0.3,5.9c-1.9,0.9-3.9,0.4-5.9,0.4c-115.1,0-230.2,0-345.3,0.1
		C1297.3,1759.6,1295.2,1759.2,1293.3,1760.1z"/>
	<path class="st1" d="M1155.3,1088.7c-0.2,1.7-1.5,2.4-2.4,3.3c-9.1,9.1-18.2,18.1-27.2,27.2c-45.8,45.8-91.7,91.7-137.3,137.6
		c-3,3-4.3,2.8-7.2-0.1c-54.5-54.8-109.2-109.5-163.9-164.1c-3-3-2.9-4.4,0-7.3c54.8-54.6,109.4-109.3,164-164c3-3,4.4-2.8,7.2,0.1
		c33.2,33.3,66.5,66.4,99.8,99.6c21.6,21.6,43,43.2,64.5,64.9C1153.6,1086.8,1154.5,1087.8,1155.3,1088.7z"/>
	<path class="st1" d="M551.6,483.9c16.1,16.4,32.1,32.8,48.3,49.1c39.2,39.3,78.3,78.6,117.7,117.7c3.5,3.5,3.7,5.2,0.1,8.8
		c-54.6,54.3-109,108.8-163.3,163.3c-2.8,2.8-4.1,3.2-7.2,0.1c-41.7-41.9-83.6-83.7-125.5-125.5c-13-13-25.8-26-38.8-39
		c-2.3-2.3-3-3.6-0.3-6.3c55.6-55.4,111.1-110.9,166.6-166.4C549.8,485.4,550.3,485,551.6,483.9z"/>
	<path class="st1" d="M984.6,826.3c-17.7-17.7-35.3-35.4-53-53.1c-38-38.1-76-76.2-114.2-114.1c-3.1-3.1-3.2-4.6,0-7.7
		c54.6-54.5,109.2-109,163.6-163.7c3.1-3.1,4.5-3.1,7.6,0c54.4,54.7,109,109.2,163.5,163.7c2.2,2.2,4.2,3.6,0.7,7
		c-55.5,55.2-110.8,110.7-166.2,166C986.1,825,985.5,825.5,984.6,826.3z"/>
	<path class="st1" d="M1419.1,827.1c-20.6-20.8-40.3-40.8-60.2-60.8c-35.8-35.9-71.6-71.7-107.5-107.5c-2.8-2.8-3.2-4.3-0.2-7.3
		c54.9-54.7,109.7-109.5,164.4-164.3c2.8-2.8,4-2.2,6.4,0.2c41.5,41.7,83.2,83.2,124.8,124.8c13.1,13.1,26.2,26.2,39.4,39
		c3.1,3,3.5,4.6,0.2,7.8c-14.8,14.4-29.4,29-44.1,43.6c-39.9,39.8-79.7,79.6-119.5,119.5C1421.6,823.5,1420.6,825.1,1419.1,827.1z"
		/>
	<path class="st1" d="M768.4,700.9c4.3,4.5,8.3,9.1,12.7,13.5c51.2,51.3,102.5,102.5,153.8,153.6c3,3,3.7,4.6,0.3,8.1
		c-54.8,54.5-109.5,109.1-164.1,163.8c-2.5,2.5-3.7,3-6.5,0.2c-54.7-54.9-109.5-109.6-164.3-164.3c-2.3-2.2-3.6-3.6-0.5-6.6
		c55.5-55.3,110.8-110.6,166.2-166C766.5,702.5,767.2,702,768.4,700.9z"/>
	<path class="st1" d="M1202.1,701.2c20.3,20.3,40.4,40.7,60.7,61c35.5,35.5,70.9,70.9,106.6,106.2c3.2,3.2,2.9,4.8-0.1,7.8
		c-54.8,54.5-109.5,109.2-164.2,163.9c-2.7,2.7-4,2.4-6.5-0.1c-54.8-54.8-109.6-109.6-164.5-164.3c-2.3-2.2-3.6-3.6-0.5-6.6
		c55.6-55.3,111.2-110.8,166.7-166.3C1200.8,702.3,1201.3,701.9,1202.1,701.2z"/>
	<path class="st2" d="M763.2,588.4c-9.6-1.7-20.6-3.5-29.7-12.9c-37.8-38.7-76.3-76.7-114.7-114.9c-3.4-3.4-2.8-5,0.2-8
		c23.7-23.6,47.2-47.5,70.8-71.2c15.2-15.3,36.9-10.8,44.4,9.6c8.5,23.2,16.5,46.7,24.5,70.1c9.6,28.3,19.8,56.4,28,85.2
		c2,7.1,4.6,14.2,3.1,21.9C787.3,580.1,777.4,588.4,763.2,588.4z"/>
	<path class="st2" d="M1198.9,587.3c-12.7-1.9-21.2-15.5-18.3-29.5c3.5-16.8,9.1-33,14.7-49.1c13.3-38.8,26.8-77.6,40.1-116.4
		c2.9-8.4,8-14.5,16.2-17.9c11.3-4.7,20.8-1.3,29,7c21.4,21.5,42.7,43.1,64,64.6c2.5,2.5,4.8,5.2,7.4,7.4c2.8,2.3,2.3,3.8-0.1,6.2
		c-30.7,30.5-61.3,61.2-91.9,91.8c-8.4,8.4-17.1,16.4-25,25.2c-6.9,7.8-15.8,9.6-25.3,10.8C1206.1,587.9,1202.5,587.9,1198.9,587.3z
		"/>
	<path class="st3" d="M1164.1,215.5c-0.6,0.6-1.2,1.4-1.9,2.1c-20.5,20.3-41,40.4-61.4,60.8c-2.9,2.9-4.1,0.9-5.9-0.9
		c-18-18-36-36.1-54.1-54.1c-1.8-1.8-3.6-3.5-5.6-5c-2.7-2.1-3.5-3.6-0.5-6.6c20.3-20,40.4-40.1,60.4-60.4c2.6-2.6,3.9-2.3,6.3,0.1
		c20.1,20.2,40.2,40.3,60.4,60.5C1162.7,213.1,1164.1,213.7,1164.1,215.5z"/>
	<path class="st2" d="M1025.3,377.5c0-17.3,0-34.6,0-52c0-1.8-0.9-4.3,2.5-4.2c12.6,0.3,25.4-1.1,37.9,0.7
		c18.2,2.6,27.3,20.1,19.2,36.7c-10.2,21-20.7,41.8-31,62.6c-3.8,7.7-7.8,15.4-11.5,23.2c-1.3,2.8-2.2,3.5-4.8,1
		c-12.2-11.7-12.3-11.6-12.3-28.5C1025.3,403.9,1025.3,390.7,1025.3,377.5z"/>
	<path class="st2" d="M944.3,377.6c0,17-0.1,34,0.1,51c0,3.3-0.8,5.7-3.3,7.8c-3.1,2.8-6.1,5.7-8.8,8.8c-2.6,3-3.6,2-5.1-1
		c-10.2-20.8-20.5-41.5-30.8-62.2c-3.7-7.5-7.4-14.9-11.1-22.4c-9.2-18.7,1.8-37.5,22.6-38.3c11-0.4,22,0.1,33-0.2
		c3.7-0.1,3.5,1.9,3.5,4.4C944.3,343,944.3,360.3,944.3,377.6z"/>
	<path class="st4" d="M977.4,142.3c5,0,9.9,0,14.8,0c0.7,0.8,0.5,1.9,0.5,2.9c0,20.4,0,40.7,0,61.1c0,0.8,0,1.7-0.5,2.4
		c-0.6,0.8-1.1,1.7-1.9,2.3c-3.3,2.5-4,4.9-0.3,7.8c2.7,2.1,3,5.2,3,8.6c-0.1,31.7,0,63.4,0,95.1c-0.7,5.3-0.3,10.6-0.3,15.9
		c-0.1,18.8,0,37.6-0.1,56.5c0,1.5,1.4,3.7-1.4,4.5c-6.5-5.4-6.5-5.4-13,0c-2.8-0.8-1.4-3-1.4-4.5c-0.1-22.3-0.1-44.6-0.1-67
		c0-1.8,0.3-3.7-0.3-5.5c0-34.7,0-69.4,0-104.1c0.7-4.4,0.3-8.9,0.3-13.4c0.1-19.1,0-38.2,0-57.2C976.9,145.8,976.3,144,977.4,142.3
		z"/>
	<path class="st5" d="M1702.2,1258.1c-1.5-1.5-0.9-3.5-0.9-5.2c0-145.7,0-291.4,0-437.2c0-1.8-1-4.1,1.3-5.4c-0.1,2-0.2,4-0.2,6
		c0,142.6,0,285.2,0,427.8C1702.4,1248.8,1702.2,1253.5,1702.2,1258.1z"/>
	<path class="st6" d="M1650.2,1759.1c0-123.5,0-247,0.1-370.5c0-2.1-1.2-4.7,1.4-6.4c-0.1,2.2-0.3,4.3-0.3,6.4
		c0,122,0,244.1-0.1,366.1c0,1.8,1.1,3.9-1.1,5.3c-0.3-0.2-0.4-0.4-0.3-0.6C1650,1759.2,1650.1,1759.1,1650.2,1759.1z"/>
	<path class="st7" d="M317.6,1759.1c119.6,0,239.1,0,358.7,0c-1,2.2-2.9,1.1-4.3,1.1c-116.7,0.1-233.3,0.1-350,0
		C320.5,1760.2,318.5,1761.3,317.6,1759.1z"/>
	<path class="st8" d="M1650.2,1759.1c0,0.3,0,0.6,0,1c-1.5,0.1-3,0.2-4.5,0.2c-116,0-232,0-347.9,0c-1.5,0-3-0.1-4.5-0.2
		c1.9-1.7,4.1-0.9,6.2-0.9C1416.4,1759.1,1533.3,1759.1,1650.2,1759.1z"/>
	<path class="st9" d="M1600.5,1041.1c-2.2-1.6-1.2-4-1.2-6c-0.1-96.7-0.1-193.5-0.1-290.2c0-2.3-0.1-4.7-0.1-7
		c0.8-0.8,1.1-0.2,1.1,0.5c0.1,1.5,0.1,3,0.1,4.5c0,97.2,0,194.5,0,291.7C1600.3,1036.8,1600.4,1039,1600.5,1041.1z"/>
	<path class="st10" d="M368.6,1041.1c-1.7-1-1.2-2.6-1.2-4c0-78.1,0-156.3,0.1-234.4c1.6,2.6,0.9,5.5,0.9,8.3
		c0,74.7,0,149.4,0,224.2C368.4,1037.2,368.5,1039.1,368.6,1041.1z"/>
	<path class="st11" d="M471.5,1041.1c-1.6-1-1.2-2.6-1.2-4.1c0-66.1,0-132.1,0-198.2c0-0.3,0-0.7,0.1-1c1.7,1.7,0.9,3.8,0.9,5.7
		c0,63.9,0,127.7,0,191.6C471.4,1037.2,471.5,1039.1,471.5,1041.1z"/>
	<path class="st12" d="M976.5,322.3c1.4,1.6,0.8,3.5,0.8,5.3c0,22.1,0,44.3,0.1,66.4c0,1.8-0.7,3.7,1,5.2c-0.4,0.5-0.9,1.3-1.5,0.5
		c-0.4-0.6-0.5-1.5-0.5-2.3C976.4,372.4,976.4,347.3,976.5,322.3z"/>
	<path class="st12" d="M991.3,399.2c1.6-1.5,0.9-3.4,1-5.2c0-22.1,0-44.3,0.1-66.4c0-1.8-0.6-3.7,0.8-5.3c0.1,25,0.1,50,0.1,75.1
		C993.3,398.4,994,400.8,991.3,399.2z"/>
	<path class="st13" d="M977.4,142.3c0,23.6,0,47.1-0.1,70.7c0,1.8,0.6,3.7-0.8,5.2c0-24.5-0.1-49-0.2-73.5
		C976.3,143.8,976.1,142.7,977.4,142.3z"/>
	<path class="st13" d="M992.3,208.6c0-22.1-0.1-44.2-0.1-66.3c1.5,0.6,1,1.9,1,3c0,20.1,0,40.1,0,60.2
		C993.3,206.6,993.5,207.8,992.3,208.6z"/>
	<path class="st14" d="M1198.9,587.3c3.6,0,7.2,0,10.8,0C1206.1,589,1202.5,589,1198.9,587.3z"/>
</g>
</svg>
